<svg width="83" height="83" viewBox="0 0 83 83" fill="none" xmlns="http://www.w3.org/2000/svg">
<path d="M63.9792 31.125H19.0208C17.1108 31.125 15.5625 32.6733 15.5625 34.5833V69.1667C15.5625 71.0766 17.1108 72.625 19.0208 72.625H63.9792C65.8891 72.625 67.4375 71.0766 67.4375 69.1667V34.5833C67.4375 32.6733 65.8891 31.125 63.9792 31.125Z" stroke="black" stroke-width="4"/>
<path d="M29.3958 48.4167C31.3058 48.4167 32.8542 46.8683 32.8542 44.9583C32.8542 43.0483 31.3058 41.5 29.3958 41.5C27.4858 41.5 25.9375 43.0483 25.9375 44.9583C25.9375 46.8683 27.4858 48.4167 29.3958 48.4167Z" fill="black"/>
<path d="M53.6029 48.4167C55.5128 48.4167 57.0612 46.8683 57.0612 44.9583C57.0612 43.0483 55.5128 41.5 53.6029 41.5C51.6929 41.5 50.1445 43.0483 50.1445 44.9583C50.1445 46.8683 51.6929 48.4167 53.6029 48.4167Z" fill="black"/>
<path d="M34.5833 55.3333C33.6661 55.3333 32.7865 55.6976 32.1379 56.3462C31.4894 56.9947 31.125 57.8744 31.125 58.7916C31.125 59.7088 31.4894 60.5884 32.1379 61.237C32.7865 61.8856 33.6661 62.2499 34.5833 62.2499V55.3333ZM48.4167 62.2499C49.3339 62.2499 50.2135 61.8856 50.8621 61.237C51.5106 60.5884 51.875 59.7088 51.875 58.7916C51.875 57.8744 51.5106 56.9947 50.8621 56.3462C50.2135 55.6976 49.3339 55.3333 48.4167 55.3333V62.2499ZM34.5833 62.2499H48.4167V55.3333H34.5833V62.2499Z" fill="black"/>
<path d="M41.4993 17.2917V31.1251M6.91602 44.9584V58.7917M76.0827 44.9584V58.7917" stroke="black" stroke-width="4" stroke-linecap="round" stroke-linejoin="round"/>
<path d="M41.4993 17.2917C43.4093 17.2917 44.9577 15.7433 44.9577 13.8333C44.9577 11.9233 43.4093 10.375 41.4993 10.375C39.5894 10.375 38.041 11.9233 38.041 13.8333C38.041 15.7433 39.5894 17.2917 41.4993 17.2917Z" stroke="black" stroke-width="4"/>
</svg>
