<svg width="32" height="32" viewBox="0 0 32 32" fill="none" xmlns="http://www.w3.org/2000/svg">
<path d="M6.65034 23.941H12.2898C12.4648 23.942 12.6384 23.9085 12.8004 23.8423C12.9625 23.7761 13.1099 23.6786 13.2341 23.5553L22.4382 14.338L26.2155 10.6404C26.3402 10.5168 26.4392 10.3697 26.5067 10.2076C26.5742 10.0455 26.609 9.87166 26.609 9.69608C26.609 9.52049 26.5742 9.34665 26.5067 9.18457C26.4392 9.02249 26.3402 8.87538 26.2155 8.75174L20.5761 3.04577C20.4524 2.92111 20.3053 2.82216 20.1432 2.75463C19.9812 2.68711 19.8073 2.65234 19.6317 2.65234C19.4562 2.65234 19.2823 2.68711 19.1202 2.75463C18.9581 2.82216 18.811 2.92111 18.6874 3.04577L14.9366 6.80985L5.706 16.0272C5.58272 16.1515 5.4852 16.2988 5.41901 16.4609C5.35282 16.6229 5.31927 16.7965 5.32028 16.9715V22.611C5.32028 22.9637 5.46041 23.302 5.70984 23.5515C5.95928 23.8009 6.29759 23.941 6.65034 23.941ZM19.6317 5.8655L23.3958 9.62958L21.5071 11.5183L17.7431 7.75419L19.6317 5.8655ZM7.9804 17.5168L15.8677 9.62958L19.6317 13.3936L11.7445 21.2809H7.9804V17.5168ZM27.9313 26.6012H3.99022C3.63746 26.6012 3.29916 26.7413 3.04972 26.9907C2.80029 27.2402 2.66016 27.5785 2.66016 27.9312C2.66016 28.284 2.80029 28.6223 3.04972 28.8717C3.29916 29.1211 3.63746 29.2613 3.99022 29.2613H27.9313C28.2841 29.2613 28.6224 29.1211 28.8718 28.8717C29.1213 28.6223 29.2614 28.284 29.2614 27.9312C29.2614 27.5785 29.1213 27.2402 28.8718 26.9907C28.6224 26.7413 28.2841 26.6012 27.9313 26.6012Z" fill="black"/>
</svg>
