<svg width="51" height="51" viewBox="0 0 51 51" fill="none" xmlns="http://www.w3.org/2000/svg">
<path d="M4.70898 25.1707L23.452 6.38703C23.6705 6.16797 23.9299 5.99419 24.2154 5.87563C24.5009 5.75707 24.8069 5.69604 25.116 5.69604C25.425 5.69604 25.731 5.75707 26.0165 5.87563C26.302 5.99419 26.5614 6.16797 26.7799 6.38703L45.5229 25.1707M9.41829 20.4512V41.689C9.41829 42.9916 10.4732 44.0487 11.7729 44.0487H20.4067V33.8231C20.4067 32.5205 21.4615 31.4634 22.7613 31.4634H27.4706C28.7704 31.4634 29.8253 32.5205 29.8253 33.8231V44.0487H38.459C39.7588 44.0487 40.8136 42.9916 40.8136 41.689V20.4512M17.2671 44.0487H34.5346" stroke="black" stroke-width="1.5" stroke-linecap="round" stroke-linejoin="round"/>
</svg>
