<svg width="83" height="83" viewBox="0 0 83 83" fill="none" xmlns="http://www.w3.org/2000/svg">
<path d="M19.0208 72.6249C21.3139 72.6249 23.513 71.714 25.1344 70.0926C26.7558 68.4712 27.6667 66.2721 27.6667 63.9791C27.6667 61.6861 26.7558 59.487 25.1344 57.8656C23.513 56.2441 21.3139 55.3333 19.0208 55.3333C16.7278 55.3333 14.5287 56.2441 12.9073 57.8656C11.2859 59.487 10.375 61.6861 10.375 63.9791C10.375 66.2721 11.2859 68.4712 12.9073 70.0926C14.5287 71.714 16.7278 72.6249 19.0208 72.6249ZM63.9792 72.6249C66.2722 72.6249 68.4713 71.714 70.0927 70.0926C71.7141 68.4712 72.625 66.2721 72.625 63.9791C72.625 61.6861 71.7141 59.487 70.0927 57.8656C68.4713 56.2441 66.2722 55.3333 63.9792 55.3333C61.6861 55.3333 59.487 56.2441 57.8656 57.8656C56.2442 59.487 55.3333 61.6861 55.3333 63.9791C55.3333 66.2721 56.2442 68.4712 57.8656 70.0926C59.487 71.714 61.6861 72.6249 63.9792 72.6249Z" stroke="black" stroke-width="4" stroke-linejoin="round"/>
<path d="M26.5898 68.1515L30.2609 61.9317L59.6567 11.0164" stroke="black" stroke-width="4" stroke-linecap="round"/>
<path d="M23.3359 10.6775L52.7318 61.5928L56.4149 68.1515" stroke="black" stroke-width="4" stroke-linecap="round"/>
</svg>
