<svg width="83" height="83" viewBox="0 0 83 83" fill="none" xmlns="http://www.w3.org/2000/svg">
<path d="M32.9173 76.0834C31.2227 70.5581 28.6665 66.4387 25.2485 63.7251C20.1215 59.6563 11.9754 62.1861 8.96665 57.9877C5.9579 53.7893 11.0745 46.0703 12.8694 41.5156C14.6643 36.961 5.98729 35.3512 7.00058 34.0577C7.67496 33.1955 12.0607 30.7078 20.1578 26.5947C22.4576 13.4761 30.9542 6.91675 45.6475 6.91675C67.6874 6.91675 76.0843 25.6021 76.0843 37.4884C76.0843 49.3712 65.9167 62.174 51.4332 64.9355C50.1387 66.8214 52.0062 70.5374 57.0358 76.0834" stroke="black" stroke-width="4.667" stroke-linecap="round" stroke-linejoin="round"/>
<path d="M33.7203 25.0729C32.5894 29.4546 32.9254 32.532 34.7284 34.3049C36.5302 36.0768 39.6012 37.2353 43.9414 37.7806C42.9557 43.4326 44.1564 46.084 47.5432 45.7347C50.9289 45.3866 52.9636 43.9802 53.6472 41.5156C58.9384 43.0027 61.8065 41.7577 62.2515 37.7806C62.9172 31.8149 59.701 27.058 58.3816 27.058C57.0623 27.058 53.6472 26.8972 53.6472 25.0729C53.6472 23.2487 49.6563 22.2198 46.0544 22.2198C42.4526 22.2198 44.6192 19.7903 39.6738 20.75C36.3768 21.3898 34.3923 22.8308 33.7203 25.0729Z" stroke="black" stroke-width="4" stroke-linejoin="round"/>
<path d="M52.7406 44.0938C50.982 45.1849 48.5698 46.9987 47.5531 48.4167C45.0129 51.9615 42.9535 54.1195 42.5039 56.3847" stroke="black" stroke-width="4" stroke-linecap="round"/>
</svg>
