<svg width="83" height="83" viewBox="0 0 83 83" fill="none" xmlns="http://www.w3.org/2000/svg">
<path d="M41.4993 76.0834C60.5997 76.0834 76.0827 60.6005 76.0827 41.5001C76.0827 22.3997 60.5997 6.91675 41.4993 6.91675C22.399 6.91675 6.91602 22.3997 6.91602 41.5001C6.91602 60.6005 22.399 76.0834 41.4993 76.0834Z" stroke="black" stroke-width="4" stroke-linejoin="round"/>
<path d="M36.3118 36.3127C36.3118 36.3127 34.5827 29.396 29.3952 29.396C24.2077 29.396 22.4785 36.3127 22.4785 36.3127M60.5202 36.3127C60.5202 36.3127 58.791 29.396 53.6035 29.396C48.416 29.396 46.6869 36.3127 46.6869 36.3127M41.4993 60.521C50.1452 60.521 53.6035 53.6043 53.6035 53.6043H29.3952C29.3952 53.6043 32.8535 60.521 41.4993 60.521Z" stroke="black" stroke-width="4" stroke-linecap="round" stroke-linejoin="round"/>
</svg>
