<svg width="20" height="20" viewBox="0 0 20 20" fill="none" xmlns="http://www.w3.org/2000/svg">
<path d="M12.5 4C12.453 2.907 12.315 2.21 11.902 1.674C11.7423 1.46591 11.5561 1.27966 11.348 1.12C10.538 0.5 9.363 0.5 7.013 0.5H6.512C3.678 0.5 2.261 0.5 1.38 1.379C0.5 2.257 0.5 3.672 0.5 6.5V13.5C0.5 16.328 0.5 17.743 1.38 18.621C2.26 19.499 3.678 19.5 6.512 19.5H7.012C9.363 19.5 10.538 19.5 11.348 18.88C11.5573 18.7193 11.742 18.5347 11.902 18.326C12.315 17.79 12.453 17.093 12.5 16M18.5 10H6.5M16 13.5C16 13.5 19.5 10.922 19.5 10C19.5 9.078 16 6.5 16 6.5" stroke="black" stroke-linecap="round" stroke-linejoin="round"/>
</svg>
