<svg width="83" height="83" viewBox="0 0 83 83" fill="none" xmlns="http://www.w3.org/2000/svg">
<path d="M71.6226 12.6386C71.6226 12.6386 78.3404 10.0189 77.7784 16.3805C77.5934 19.0002 75.9144 28.17 74.6071 38.0867L70.1286 67.4653C70.1286 67.4653 69.7551 71.7692 66.3953 72.5179C63.0373 73.2649 57.9985 69.8982 57.0647 69.1495C56.3177 68.5875 43.0689 60.1665 38.4036 56.0511C37.0963 54.9271 35.6023 52.6826 38.5903 50.0629L58.1852 31.3499C60.4245 29.102 62.6638 23.8626 53.3332 30.2259L27.2055 48.0018C27.2055 48.0018 24.2192 49.8745 18.6219 48.1903L6.49007 44.4466C6.49007 44.4466 2.01153 41.6402 9.66309 38.8337C28.326 30.0392 51.2807 21.0579 71.6209 12.6369" fill="black"/>
</svg>
